<svg width="48" height="48" viewBox="0 0 48 48" fill="none" xmlns="http://www.w3.org/2000/svg">
<rect x="0.5" y="0.5" width="47" height="47" rx="14.5" fill="white" fill-opacity="0.2" stroke="#E8E6EA"/>
<path fill-rule="evenodd" clip-rule="evenodd" d="M19.2441 19.2441C19.5695 18.9186 20.0972 18.9186 20.4226 19.2441L24 22.8215L27.5774 19.2441C27.9028 18.9186 28.4305 18.9186 28.7559 19.2441C29.0814 19.5695 29.0814 20.0972 28.7559 20.4226L25.1785 24L28.7559 27.5774C29.0814 27.9028 29.0814 28.4305 28.7559 28.7559C28.4305 29.0814 27.9028 29.0814 27.5774 28.7559L24 25.1785L20.4226 28.7559C20.0972 29.0814 19.5695 29.0814 19.2441 28.7559C18.9186 28.4305 18.9186 27.9028 19.2441 27.5774L22.8215 24L19.2441 20.4226C18.9186 20.0972 18.9186 19.5695 19.2441 19.2441Z" fill="white"/>
</svg>
