    <svg
      xmlns="http://www.w3.org/2000/svg"
      width="20"
      height="20"
      fill="none"
      viewBox="0 0 24 24"
    >
      <path
        fill="#030D45"
        fillRule="evenodd"
        d="M15.361 2.912a3.112 3.112 0 014.401 0l1.326 1.326a3.112 3.112 0 010 4.401L8.64 21.089a3.112 3.112 0 01-2.2.911H2.85a.849.849 0 01-.85-.849v-3.59c0-.825.328-1.616.912-2.2L15.36 2.911zm3.201 1.2a1.415 1.415 0 00-2 0l-2.327 2.326 3.327 3.327 2.326-2.326a1.415 1.415 0 000-2.001l-1.326-1.326zm-2.2 6.853L13.034 7.64l-8.922 8.92a1.415 1.415 0 00-.414 1v2.741h2.74c.375 0 .735-.149 1-.414l8.923-8.923z"
        clipRule="evenodd"
      ></path>
    </svg>