<svg width="20" height="16" viewBox="0 0 20 16" fill="none" xmlns="http://www.w3.org/2000/svg">
<path fill-rule="evenodd" clip-rule="evenodd" d="M0.991803 0H19.0082C19.5447 0 20 0.481137 20 1.07465V11.5V14.9254C20 15.5212 19.556 16 19.0082 16H0.991803C0.455306 16 0 15.5189 0 14.9254V1.07465C0 0.478848 0.444045 0 0.991803 0ZM18.8 10.4088V1.2H1.2V10.0922L6.19925 6.04926C6.6618 5.67518 7.40463 5.69333 7.8505 6.08508L12.3269 10.0182L14.6091 8.0775C15.0713 7.68444 15.8067 7.69242 16.2554 8.09508L18.8 10.4088ZM1.2 11.6355L7.00606 6.94008L12.8112 12H14.5824L13.238 10.8187L15.4262 8.95789L18.8 11.9936L18.8 14.8H1.2V11.6355Z" fill="black" fill-opacity="0.9"/>
</svg>
