    <svg
      xmlns="http://www.w3.org/2000/svg"
      width="24"
      height="24"
      viewBox="0 0 24 24"
    >
      <path
        fill="#41416e"
        d="M12 15.75A4.756 4.756 0 0016.75 11V8.311l3.78-3.781a.75.75 0 10-1.06-1.06l-16 16a.75.75 0 101.06 1.06l3.121-3.12a7.723 7.723 0 003.6 1.3v1.54H8a.75.75 0 000 1.5h8a.75.75 0 000-1.5h-3.25v-1.538a7.76 7.76 0 007-7.712.75.75 0 00-1.5 0 6.223 6.223 0 01-9.5 5.315l1.1-1.1a4.7 4.7 0 002.15.535zM15.25 11A3.254 3.254 0 0112 14.25a3.2 3.2 0 01-1.018-.171l4.268-4.268zm-7.884 1.052A5.142 5.142 0 017.25 11V7a4.745 4.745 0 018.65-2.707.75.75 0 11-1.233.854A3.245 3.245 0 008.75 7v4a3.738 3.738 0 00.084.748.749.749 0 01-.582.886.723.723 0 01-.153.016.75.75 0 01-.733-.598zm-2.251 2.514A7.743 7.743 0 014.25 11a.75.75 0 011.5 0 6.243 6.243 0 00.7 2.874.749.749 0 01-.319 1.011.74.74 0 01-.346.085.748.748 0 01-.67-.404z"
        data-name="microphone-slash-Regular"
      ></path>
    </svg>